# Blender 3.3.1
# www.blender.org
mtllib nowalls.mtl
o Cube.001
v -7.001183 3.224478 -0.995770
v -7.001183 2.042572 0.085259
v -7.001183 2.043909 1.640190
v 1.285392 1.047921 -0.995772
v -7.001183 1.047921 -0.995772
v 1.285392 3.224478 -0.995770
v 1.285392 2.043909 1.640190
v 1.285392 2.040807 0.576502
v 1.285392 3.224478 3.212595
v -7.001183 1.047920 3.212595
v 1.285392 1.047920 3.212595
v -7.001183 1.047921 2.136611
v -7.001183 2.043909 2.136611
v -7.001183 3.224478 3.212595
v -7.001183 2.042572 -0.410992
v -7.001183 1.047921 -0.410992
v -7.001183 1.047921 0.085259
v -7.001183 1.047921 1.640190
v 1.285392 1.047921 -0.410992
v 1.285392 2.040807 -0.410992
v 1.285392 2.043909 2.136611
v 1.285392 1.047921 2.136611
v 1.285392 1.047921 1.640190
v 1.285392 1.047921 0.576502
v -6.977262 3.218194 -0.983622
v -6.959750 2.043909 1.640190
v -6.959750 2.042572 0.085259
v -6.971886 1.047921 -0.980893
v 1.256095 1.047921 -0.980893
v 1.261471 3.218194 -0.983622
v 1.243959 2.040807 0.576502
v 1.243959 2.043909 1.640190
v 1.261471 3.218194 3.200449
v 1.256095 1.047920 3.197716
v -6.971886 1.047920 3.197716
v -6.959750 1.047921 2.136611
v -6.959750 2.043909 2.136611
v -6.977262 3.218194 3.200449
v -6.959750 2.042572 -0.410992
v -6.959750 1.047921 -0.410992
v -6.959750 1.047921 0.085259
v -6.959750 1.047921 1.640190
v 1.243959 1.047921 -0.410992
v 1.243959 2.040807 -0.410992
v 1.243959 2.043909 2.136611
v 1.243959 1.047921 2.136611
v 1.243959 1.047921 1.640190
v 1.243959 1.047921 0.576502
v 1.216087 3.043729 1.138119
v -0.783914 3.043728 3.138120
v -6.933916 3.043729 1.088120
v -6.933915 1.043729 1.088119
v -6.933915 1.043729 0.088119
v -6.933915 2.043729 0.088119
v -4.933916 3.043729 1.088120
v -6.933915 3.043729 -0.911881
v -4.933915 3.043729 -0.911879
v -4.933915 1.043729 -0.911881
v -6.933915 1.043729 -0.411881
v -6.933915 1.043729 -0.911881
v -6.933915 2.043729 -0.411881
v -2.833915 3.043729 -0.911881
v -0.833915 3.043729 1.088120
v -0.833914 3.043729 -0.911879
v -2.833915 1.043729 -0.911881
v -0.833914 1.043729 -0.911881
v -2.833915 3.043729 1.088120
v -2.883914 3.043729 -0.911879
v 1.216086 2.043729 0.588119
v 1.216086 1.043729 1.088119
v 1.216086 3.043729 1.088120
v 1.216087 3.043729 -0.911879
v 1.216086 2.043729 -0.411881
v 1.216086 1.043729 -0.911881
v 1.216086 1.043729 -0.411881
v -0.783913 1.043729 -0.911881
v -0.783914 3.043729 -0.911881
v -4.883914 3.043729 -0.911881
v -4.883914 1.043729 -0.911881
v -2.883914 1.043729 -0.911881
v -4.933915 1.043727 3.138119
v -4.933916 3.043728 3.138120
v -2.883915 3.043729 1.088120
v -4.883914 3.043729 1.088120
v -6.937996 3.047740 1.133994
v -4.929833 3.047740 1.133996
v -6.933915 1.043727 3.138119
v -5.933915 1.043729 1.138119
v -6.933915 1.043729 1.138119
v -6.933915 2.043729 2.138119
v -6.933915 1.043729 1.638119
v -6.933915 2.043729 1.638119
v -6.933915 1.043728 2.138119
v -2.883915 3.043728 3.138120
v -4.883914 1.043727 3.138119
v -4.883914 3.043728 3.138120
v -2.883914 3.043729 1.138119
v -0.833914 3.043729 1.138119
v -4.883914 3.043729 1.138119
v 1.216086 3.043728 3.138120
v -0.783914 1.043727 3.138119
v -2.833915 3.043729 1.138119
v -0.833915 3.043728 3.138120
v -2.833915 3.043728 3.138120
v -2.833915 1.043727 3.138119
v -0.833914 1.043727 3.138119
v 1.216086 2.043729 2.138119
v -5.933915 1.043729 1.088119
v -2.883914 1.043727 3.138119
v 1.216086 1.043727 3.138119
v 1.216086 1.043729 1.138119
v 1.216086 2.043729 1.638119
v 1.216086 1.043729 1.638119
v 1.216086 1.043728 2.138119
v 1.240008 3.050012 1.125971
v -0.807835 3.050012 1.125971
v -0.807835 3.050012 3.150270
v -6.957837 3.050012 1.100269
v -6.963212 1.043729 1.102998
v -6.975348 2.043729 0.088119
v -6.975348 1.043729 0.088119
v -4.909994 3.050012 1.100269
v -4.909993 3.050012 -0.924028
v -6.957836 3.050012 -0.924029
v -4.904617 1.043729 -0.926760
v -6.975348 1.043729 -0.411881
v -6.975348 2.043729 -0.411881
v -6.963212 1.043729 -0.926760
v -2.857836 3.050012 -0.924029
v -0.809994 3.050012 1.100269
v -0.809993 3.050012 -0.924028
v -2.863212 1.043729 -0.926760
v -0.804616 1.043729 -0.926760
v -2.857836 3.050012 1.100269
v -2.859993 3.050012 -0.924028
v 1.257519 2.043729 0.588119
v 1.240007 3.050012 1.100269
v 1.245384 1.043729 1.102998
v 1.240008 3.050012 -0.924028
v 1.257519 2.043729 -0.411881
v 1.245384 1.043729 -0.926760
v 1.257519 1.043729 0.588119
v 1.257519 1.043729 -0.411881
v -0.807835 3.050012 1.100269
v -0.813210 1.043729 -0.926760
v -0.807835 3.050012 -0.924029
v -4.913212 1.043729 -0.926760
v -4.907835 3.050012 -0.924029
v -2.854617 1.043729 -0.926760
v -4.909994 3.049998 3.150295
v -4.904617 1.043727 3.152998
v -2.859994 3.050012 1.100269
v -4.907835 3.050012 1.100269
v -6.961927 3.054031 1.121864
v -4.905902 3.054031 1.121866
v -6.963212 1.043727 3.152998
v -5.933915 1.043717 1.117077
v -6.963223 1.043720 1.123245
v -6.975348 2.043725 2.138124
v -6.975348 1.043729 1.638119
v -6.975348 2.043721 1.638144
v -6.975348 1.043728 2.138119
v -2.859994 3.050012 3.150270
v -4.907835 3.050012 3.150270
v -4.913212 1.043727 3.152998
v -2.859993 3.050012 1.125971
v -0.809993 3.050012 1.125971
v -4.907835 3.050012 1.125971
v 1.240007 3.050012 3.150270
v -0.813212 1.043727 3.152998
v -2.857836 3.050012 1.125971
v -0.809994 3.050012 3.150270
v -2.857836 3.050012 3.150270
v -2.863212 1.043727 3.152998
v -0.804616 1.043727 3.152998
v 1.257519 2.043729 2.138119
v -5.933915 1.043729 1.109161
v -2.854617 1.043727 3.152998
v 1.245384 1.043727 3.152998
v 1.257519 2.043729 1.638119
v 1.245384 1.043729 1.123240
v 1.257519 1.043729 1.638119
v 1.257519 1.043728 2.138119
v -2.857895 2.136200 -0.995772
v -7.001183 2.136200 -0.995772
v -2.857895 3.224478 -0.995770
v -2.857896 1.047921 -0.995772
v 1.285392 2.136200 -0.995772
v -2.857896 2.136199 3.212595
v 1.285392 2.136199 3.212595
v -2.857896 3.224478 3.212595
v -2.857895 1.047920 3.212595
v -7.001183 2.136199 3.212595
vn -1.0000 -0.0000 -0.0000
vn -0.0000 -0.0000 -1.0000
vn 1.0000 -0.0000 -0.0000
vn -0.0000 -0.0000 1.0000
vn -0.0000 1.0000 -0.0000
vn 0.9999 0.0149 -0.0000
vn -0.0000 0.0013 1.0000
vn -0.9999 0.0148 -0.0000
vn -0.0000 0.0013 -1.0000
vn -0.0000 -1.0000 -0.0000
vn 0.9999 -0.0000 0.0114
vn 0.9999 0.0025 0.0137
vn 0.9997 0.0024 -0.0256
vn 0.9998 -0.0000 -0.0213
vn -0.9998 -0.0000 -0.0213
vn -0.9997 0.0024 -0.0255
vn -0.9999 0.0025 0.0137
vn -0.9999 -0.0000 0.0114
vn -0.9999 0.0149 -0.0000
vn 0.7071 -0.0000 -0.7071
vn -0.5773 -0.5774 -0.5774
vn 0.5774 -0.5774 0.5774
vn -0.5773 -0.5773 0.5774
vn -0.7071 -0.0000 0.7071
vn 0.7071 -0.0000 0.7071
vn 0.5774 -0.5773 -0.5774
vn -0.5774 -0.5774 -0.5773
vn 0.5773 -0.5774 0.5774
vn -0.5773 -0.5774 0.5773
vn 0.5773 -0.5774 -0.5774
vn -0.7071 -0.0000 -0.7071
vn -0.5774 -0.5773 0.5773
vn 0.5773 -0.5774 0.5773
vn -0.5772 -0.5766 -0.5783
vn 0.7075 0.0019 0.7067
vn 1.0000 0.0027 -0.0019
vn 0.5785 -0.5766 0.5769
vn 1.0000 0.0013 -0.0006
vn -0.5773 -0.5773 -0.5774
vn 0.5773 -0.5774 -0.5773
vn 0.5785 -0.5767 0.5768
vn -0.5785 -0.5767 0.5768
vn -0.5771 -0.5766 -0.5783
vn 0.5774 -0.5774 0.5773
vn -0.5773 -0.5774 0.5774
vn -0.5774 -0.5773 -0.5774
vn 0.5774 -0.5774 -0.5773
vn 1.0000 0.0014 -0.0007
vn 0.5736 0.5818 -0.5766
vn -0.5736 0.5814 -0.5770
vn -0.5738 0.5798 0.5784
vn -0.7071 0.0012 0.7071
vn -0.9999 0.0096 0.0069
vn -0.9999 -0.0000 0.0120
vn 0.5745 0.5805 0.5770
vn 0.5729 0.5807 -0.5784
vn -0.5729 0.5807 -0.5784
vn 0.6985 0.0016 -0.7156
vn -0.9997 -0.0000 -0.0236
vn -0.9998 0.0088 -0.0158
vn -0.6985 0.0015 -0.7156
vn -0.5744 0.5810 0.5766
vn 0.5737 0.5798 0.5785
vn -0.5737 0.5799 0.5785
vn 0.9998 0.0088 0.0158
vn 0.5736 0.5818 0.5766
vn 0.7029 0.0008 0.7113
vn 0.9998 0.0088 -0.0158
vn 0.6985 0.0015 -0.7156
vn 0.9997 -0.0000 0.0236
vn 0.9997 -0.0000 -0.0236
vn -0.6985 0.0016 -0.7156
vn -0.5737 0.5798 0.5785
vn -0.7027 0.0019 0.7115
vn 0.7027 0.0019 0.7115
vn 0.5736 0.5791 0.5793
vn -0.9997 -0.0000 -0.0235
vn -0.9999 0.0061 -0.0139
vn -0.7033 -0.0010 -0.7109
vn -0.5748 0.5812 -0.5761
vn -0.9999 0.0082 0.0075
vn -0.7027 0.0020 0.7115
vn 0.5737 0.5791 0.5793
vn 0.5748 0.5807 -0.5765
vn 0.5730 0.5807 -0.5783
vn 0.7027 0.0020 0.7115
vn 0.9999 0.0096 0.0069
vn 0.7029 0.0009 -0.7113
vn 0.9999 -0.0000 0.0120
vn -0.5745 0.5805 0.5770
vn -0.0000 -0.7071 0.7071
vn -0.0000 -0.7071 -0.7071
vn 0.0003 -0.7070 0.7072
vn 0.0001 -0.7072 -0.7071
vn 0.0001 -0.7071 -0.7072
vn 0.0003 -0.7072 0.7070
vn -0.0000 -0.7017 0.7124
vn -0.0000 -0.7044 -0.7098
vn 0.0003 -0.7071 0.7071
vn 0.0003 -0.7017 0.7124
vn 0.0001 -1.0000 -0.0000
vt 0.537261 0.447277
vt 0.569623 0.009540
vt 0.986397 0.008618
vt 0.651614 0.219368
vt 0.760276 0.332942
vt 0.816097 0.219626
vt 0.677155 0.454363
vt 0.991401 0.030638
vt -1.683177 2.558177
vt 5.151529 -3.689354
vt 0.933744 0.460073
vt 0.537261 0.027567
vt -1.683177 -1.808177
vt -2.504968 -2.708989
vt 0.569623 0.470635
vt 0.528046 0.008618
vt 0.991401 0.459972
vt 0.933744 0.032291
vt 0.727224 0.234059
vt 0.349897 0.852252
vt 0.833827 0.233426
vt 0.077971 0.870853
vt 0.563409 0.026167
vt 0.526985 0.459972
vt 0.528046 0.466969
vt 0.982429 0.027567
vt 3.504968 -2.708989
vt -2.014267 3.389267
vt 0.950443 0.460279
vt 0.532430 0.030638
vt -2.014267 -1.639267
vt -4.059084 -3.689354
vt 0.563409 0.453882
vt 0.868610 0.027567
vt 1.968364 -2.708989
vt 0.796565 0.017498
vt 0.868609 0.219626
vt 0.796565 0.454363
vt 0.982429 0.447277
vt 0.986397 0.466969
vt 0.950443 0.032565
vt 0.599120 0.219368
vt 0.694223 0.332942
vt 0.599120 0.027567
vt 0.694223 0.091529
vt -1.669848 -2.708989
vt 0.651614 0.027567
vt -0.961156 -2.708989
vt 0.760276 0.091529
vt 0.816097 0.027567
vt 1.259429 -2.708989
vt 0.677155 0.017498
vt 0.932794 0.030638
vt 3.975406 -3.689354
vt 0.454951 0.098405
vt 0.932794 0.233425
vt 0.454952 0.870852
vt 0.677472 0.234059
vt 0.165087 0.852252
vt 0.677472 0.030638
vt -1.148381 -3.689354
vt 0.165087 0.096616
vt 0.727224 0.030638
vt 0.349897 0.096616
vt -0.149968 -3.689354
vt 0.833827 0.030638
vt 1.989342 -3.689354
vt 0.077971 0.098405
vt -2.504968 2.958989
vt 2.683177 -1.808177
vt 3.444359 -2.069360
vt 1.259426 -0.115334
vt 0.677155 0.454363
vt -0.961156 -0.118817
vt 0.760276 0.332942
vt -1.683177 -1.808177
vt -2.504968 -2.708989
vt 0.483776 0.578742
vt -1.683177 2.558177
vt 5.151529 -3.689354
vt -1.944360 -2.069360
vt 0.483776 0.933910
vt 2.683177 2.558177
vt 0.353422 0.746499
vt 0.077971 0.870853
vt 0.265234 0.747023
vt 0.349897 0.852252
vt 3.014267 -1.639267
vt 0.099586 0.933910
vt -1.944360 3.319360
vt 0.104090 0.578742
vt -2.014267 -1.639267
vt -4.059084 -3.689354
vt 3.504968 -2.708989
vt -2.014267 3.389267
vt 1.968364 -2.708989
vt 0.796565 0.017498
vt 1.968361 -0.115334
vt 0.796565 0.454363
vt 3.504968 2.958989
vt 3.014267 3.389267
vt 3.444359 3.319360
vt -1.669848 -0.118816
vt 0.694223 0.332942
vt 0.694223 0.091529
vt -1.669848 -2.708989
vt -0.961156 -2.708989
vt 0.760276 0.091529
vt 1.259429 -2.708989
vt 0.677155 0.017498
vt 0.435293 0.578742
vt 3.975406 -3.689354
vt 0.454951 0.098405
vt 0.435293 0.746498
vt 0.454952 0.870852
vt 0.224077 0.747023
vt 0.165087 0.852252
vt 0.224077 0.578742
vt -1.148381 -3.689354
vt 0.165087 0.096616
vt 0.265234 0.578742
vt 0.349897 0.096616
vt -0.149968 -3.689354
vt 0.353422 0.578742
vt 1.989342 -3.689354
vt 0.077971 0.098405
vt 0.492478 0.972931
vt 0.480945 0.901085
vt 0.061161 0.890239
vt 0.041632 0.240879
vt 0.102953 0.968304
vt 0.008827 0.551093
vt 0.102953 0.523629
vt -1.791094 -1.791094
vt 0.280823 0.523629
vt 0.041781 -1.791094
vt 0.248469 0.512293
vt 0.280823 0.745966
vt 0.248469 0.969946
vt 0.467923 0.551093
vt 0.008827 0.957948
vt 0.547629 0.968304
vt 0.140095 0.988490
vt 0.467923 0.957948
vt 0.674783 0.988490
vt 0.674783 0.514645
vt 0.501758 -3.022625
vt 0.369759 0.523629
vt 0.958219 -1.791094
vt 0.431531 0.512293
vt 0.547629 0.523629
vt 0.140095 0.514645
vt -1.886050 -3.022625
vt 2.791094 -1.791094
vt 0.369759 0.745966
vt 0.431531 0.969946
vt 0.030537 0.908438
vt 0.030903 0.941351
vt 0.483252 0.228089
vt 0.483252 0.908438
vt 0.492228 0.941351
vt 0.030903 0.248064
vt -1.766659 -3.022625
vt 0.492228 0.248064
vt 0.621148 -3.022625
vt 0.030537 0.228090
vt 0.498966 0.907047
vt 0.477610 0.968641
vt 0.178279 0.738545
vt 0.084450 0.747717
vt 0.030837 0.492808
vt 0.030837 0.984282
vt 0.522311 0.984282
vt 0.465745 0.866861
vt 0.374869 0.738545
vt 0.418302 0.747717
vt 0.522311 0.492808
vt 0.465745 0.265971
vt 0.680843 -3.022625
vt 2.048017 -1.048018
vt 0.374869 0.492808
vt 0.418302 0.330402
vt 1.119207 -1.048018
vt 0.065904 0.265971
vt -1.706964 -3.022625
vt 0.065903 0.866861
vt 0.020873 0.907047
vt 0.027181 0.968641
vt 0.020873 0.188561
vt -1.826355 -3.022625
vt 0.498966 0.188561
vt 0.561453 -3.022625
vt 0.284295 0.750057
vt 0.501758 0.565815
vt 0.284295 1.120634
vt 0.455613 0.269949
vt 0.477610 0.291729
vt 0.027181 0.291729
vt 0.060304 0.864041
vt 0.524454 0.983601
vt 0.456419 0.864040
vt 0.037707 0.750057
vt 0.043773 0.502920
vt -1.886050 0.565815
vt -1.827308 -1.827308
vt 0.524454 0.502920
vt 2.827308 -1.827308
vt 0.236045 0.743261
vt 0.097888 0.936309
vt 0.332182 0.502920
vt 0.431742 0.101675
vt 0.965462 -1.827308
vt 0.332182 0.743261
vt 0.431742 0.936309
vt 0.236045 0.502920
vt 0.034538 -1.827308
vt 0.097888 0.101675
vt 0.271843 1.132089
vt 0.487734 0.250011
vt 0.017785 0.750286
vt -1.826355 0.565815
vt 0.017785 1.132089
vt 0.043179 0.250011
vt 0.487734 0.918095
vt 0.395153 0.491141
vt 0.043179 0.918095
vt 0.473132 0.890239
vt 0.016486 0.972931
vt 0.480945 0.240878
vt 0.061161 0.271122
vt -1.706965 0.565815
vt 0.080668 0.491141
vt 0.395153 0.018527
vt 0.395153 0.982997
vt 0.080668 0.018527
vt 0.080668 0.982997
vt 0.080668 0.510383
vt -1.766660 0.565815
vt 0.395153 0.510383
vt 0.621148 0.565815
vt 0.174371 0.723729
vt 0.100878 0.846592
vt 0.271843 0.750286
vt 0.561453 0.565815
vt 0.473132 0.271122
vt 0.016486 0.496939
vt 0.680843 0.565815
vt -0.951981 -0.951981
vt 0.492478 0.496939
vt 1.951981 -0.951981
vt 0.292330 0.725062
vt 0.310075 0.848955
vt 0.294765 0.499801
vt 0.314394 0.449459
vt 0.745763 -0.934526
vt 0.171811 0.497607
vt 0.096337 0.445568
vt -0.004366 -0.947909
vt 0.495276 0.864853
vt 0.680844 0.419709
vt -1.706965 0.419710
vt -1.706965 4.154255
vt -1.706965 -3.168730
vt -1.791094 2.791094
vt -1.886051 -3.079019
vt -1.791094 -1.791094
vt 0.041781 0.500000
vt 0.248469 0.969946
vt 0.041781 -1.791094
vt 0.248469 0.512293
vt 0.501757 -3.079020
vt 0.501758 0.509420
vt 0.501758 0.565815
vt -1.886050 0.509421
vt 2.791094 2.791094
vt -1.886050 0.565815
vt 0.501758 -3.022625
vt 0.958219 -1.791094
vt 0.431531 0.512293
vt 0.958219 0.500000
vt 0.431531 0.969946
vt -1.886050 -3.022625
vt 2.791094 -1.791094
vt -1.766660 0.509421
vt -1.766660 0.565815
vt 0.621147 -3.079020
vt 0.621148 0.509420
vt 0.621148 0.565815
vt -1.766659 -3.022625
vt 0.621148 -3.022625
vt -1.766660 -3.079019
vt 0.561453 0.565815
vt 0.561453 0.509420
vt 0.262385 0.701587
vt 0.084450 0.747717
vt 0.157947 0.875651
vt 0.680843 -3.079020
vt 0.157947 0.527523
vt 0.506074 0.875651
vt 0.680844 0.565815
vt 0.680844 0.509420
vt 0.401636 0.701587
vt 0.418302 0.747717
vt 0.506074 0.527523
vt 0.680843 -3.022625
vt 2.048017 -1.048018
vt 0.262385 0.527523
vt 0.401636 0.527523
vt 0.418302 0.330402
vt 1.119207 -1.048018
vt -1.706965 -3.079019
vt -1.706964 -3.022625
vt -1.706965 0.565815
vt -1.706965 0.509421
vt -1.826355 -3.022625
vt -1.826355 0.565815
vt -1.826355 0.509421
vt 0.561453 -3.022625
vt 0.501757 4.154255
vt 0.501757 -3.168731
vt 0.501758 0.565815
vt 0.561452 -3.079020
vt -1.826355 -3.079019
vt -1.890922 0.427114
vt 2.827308 2.827308
vt 0.506630 0.427113
vt -1.886050 0.565815
vt -1.827308 -1.827308
vt 2.827308 -1.827308
vt 0.034538 0.500000
vt 0.097888 0.936309
vt 0.431742 0.101675
vt 0.965462 -1.827308
vt 0.965462 0.500000
vt 0.431742 0.936309
vt 0.034538 -1.827308
vt 0.097888 0.101675
vt 0.561452 4.154255
vt 0.561452 -3.168731
vt -1.826355 4.154255
vt -1.826355 -3.168730
vt -1.826355 0.565815
vt 0.561453 0.419709
vt 0.621148 0.419709
vt -1.826355 0.419710
vt 0.680843 4.154255
vt 0.168745 0.864853
vt 0.680843 -3.168731
vt -1.706965 0.565815
vt -1.766660 0.419710
vt 0.621147 -3.168731
vt 0.621147 4.154255
vt -1.766660 -3.168730
vt -1.766660 4.154255
vt -1.766660 0.565815
vt 0.621148 0.565815
vt 0.277055 0.693900
vt 0.100878 0.846592
vt 0.561453 0.565815
vt 0.168745 0.538322
vt 0.680843 0.565815
vt -0.951981 -0.951981
vt 0.357974 0.694814
vt 0.310075 0.848955
vt 0.495276 0.538322
vt 1.951981 -0.951981
vt 0.359645 0.540285
vt 0.314394 0.449459
vt 0.745763 -0.934526
vt 0.275298 0.538780
vt 0.096337 0.445568
vt -0.004366 -0.947909
vt 0.943026 0.240087
vt 0.561972 0.246182
vt 0.537261 0.237422
vt 0.569623 0.240087
vt 0.757222 0.008618
vt 0.943026 0.009540
vt 0.561972 0.032291
vt -1.683177 0.375000
vt 0.943026 0.470635
vt 0.561972 0.460073
vt 0.991401 0.245305
vt 0.933744 0.246182
vt 0.963536 0.240024
vt 0.555336 0.246422
vt 0.529707 0.245305
vt 0.563409 0.240024
vt 0.963536 0.026167
vt 0.757222 0.466969
vt 0.555336 0.032565
vt -2.014267 0.875000
vt 0.963536 0.453882
vt 0.555336 0.460279
vt 0.982429 0.237422
vt 0.950443 0.246422
s 0
usemtl material_0.002
f 1/1/1 2/4/1 3/6/1
f 1/2/2 184/373/2 185/376/2
f 6/17/3 7/19/3 8/21/3
f 9/23/4 189/385/4 190/388/4
f 1/3/5 9/25/5 6/16/5 186/377/5
f 12/34/1 10/26/1 13/37/1
f 10/26/1 193/395/1 14/39/1 13/37/1
f 1/1/1 185/375/1 5/12/1 15/42/1
f 5/12/1 16/44/1 15/42/1
f 17/47/1 18/50/1 2/4/1
f 18/50/1 3/6/1 2/4/1
f 3/6/1 13/37/1 14/39/1
f 14/39/1 1/1/1 3/6/1
f 1/1/1 15/42/1 2/4/1
f 9/23/4 191/389/4 189/385/4
f 19/53/3 4/8/3 20/56/3
f 4/8/3 188/383/3 6/17/3 20/56/3
f 9/24/3 190/387/3 11/30/3 21/58/3
f 11/30/3 22/60/3 21/58/3
f 23/63/3 24/66/3 8/21/3
f 8/21/3 20/56/3 6/17/3
f 6/17/3 9/24/3 7/19/3
f 9/24/3 21/58/3 7/19/3
f 7/19/3 23/63/3 8/21/3
f 1/2/2 186/378/2 184/373/2
f 1/3/5 14/40/5 191/390/5 9/25/5
f 25/69/6 26/72/6 27/74/6
f 25/70/7 28/76/7 29/79/7
f 30/82/8 31/84/8 32/86/8
f 33/88/9 34/92/9 35/95/9
f 25/71/10 30/81/10 33/90/10
f 36/96/11 37/98/11 35/94/11
f 35/94/12 37/98/12 38/100/12
f 25/69/13 39/103/13 28/77/13
f 28/77/14 39/103/14 40/106/14
f 41/107/3 27/74/3 42/109/3
f 42/109/3 27/74/3 26/72/3
f 26/72/6 38/100/6 37/98/6
f 38/100/6 26/72/6 25/69/6
f 25/69/6 27/74/6 39/103/6
f 33/88/9 35/95/9 38/101/9
f 43/111/15 44/114/15 29/78/15
f 29/78/16 44/114/16 30/82/16
f 33/89/17 45/116/17 34/91/17
f 34/91/18 45/116/18 46/118/18
f 47/121/1 31/84/1 48/124/1
f 31/84/19 30/82/19 44/114/19
f 30/82/19 32/86/19 33/89/19
f 33/89/19 32/86/19 45/116/19
f 32/86/1 31/84/1 47/121/1
f 25/70/7 29/79/7 30/83/7
f 25/71/10 33/90/10 38/102/10
f 10/27/10 12/35/10 36/96/10 35/94/10
f 5/13/10 187/380/10 4/9/10 29/79/10 28/76/10
f 4/10/10 19/54/10 43/112/10 29/80/10
f 11/31/10 192/392/10 10/28/10 35/95/10 34/92/10
f 22/61/10 11/32/10 34/93/10 46/119/10
f 18/51/10 17/48/10 41/107/10 42/109/10
f 23/64/4 7/20/4 32/87/4 47/122/4
f 7/20/10 21/59/10 45/117/10 32/87/10
f 21/59/2 22/62/2 46/120/2 45/117/2
f 3/7/4 18/52/4 42/110/4 26/73/4
f 13/38/10 3/7/10 26/73/10 37/99/10
f 12/36/2 13/38/2 37/99/2 36/97/2
f 15/43/4 16/45/4 40/105/4 39/104/4
f 24/67/10 23/65/10 47/123/10 48/125/10
f 16/46/10 5/14/10 28/77/10 40/106/10
f 19/55/4 20/57/4 44/115/4 43/113/4
f 20/57/10 8/22/10 31/85/10 44/115/10
f 8/22/2 24/68/2 48/126/2 31/85/2
f 2/5/10 15/43/10 39/104/10 27/75/10
f 17/49/2 2/5/2 27/75/2 41/108/2
f 184/374/2 188/384/2 4/11/2
f 184/374/2 186/379/2 188/384/2
f 186/379/2 6/18/2 188/384/2
f 185/376/2 187/381/2 5/15/2
f 185/376/2 184/373/2 187/381/2
f 184/374/2 4/11/2 187/382/2
f 189/386/4 193/396/4 10/29/4
f 189/386/4 191/391/4 193/396/4
f 191/391/4 14/41/4 193/396/4
f 190/388/4 192/393/4 11/33/4
f 190/388/4 189/385/4 192/393/4
f 189/386/4 10/29/4 192/394/4
s 1
usemtl material_12.002
f 52/133/20 53/135/3 54/138/3
f 55/140/21 56/141/22 57/144/23
f 58/146/24 57/145/23 56/143/22
f 59/148/3 60/151/25 61/155/3
f 60/151/25 56/142/22 61/155/3
f 51/131/26 52/133/20 54/138/3
f 51/131/26 54/138/3 56/142/22
f 63/159/27 62/157/28 64/160/29
f 66/164/24 64/161/29 62/158/28
f 63/159/27 67/166/30 62/157/28
f 69/169/1 70/171/31 71/172/21
f 72/173/32 73/175/1 69/169/1
f 72/173/32 74/177/24 73/175/1
f 74/177/24 75/181/1 73/175/1
f 72/174/32 76/184/25 74/178/24
f 68/167/29 78/187/33 79/189/25
f 68/167/29 79/189/25 80/191/24
f 68/168/29 84/198/30 78/188/33
f 87/202/20 82/195/34 81/193/31
f 91/210/3 89/206/35 92/213/36
f 89/206/35 85/200/37 92/213/36
f 87/203/20 93/215/3 90/208/38
f 94/218/39 95/220/20 96/222/40
f 55/140/21 51/132/26 56/141/22
f 85/199/41 86/201/42 82/196/43
f 94/219/39 99/226/44 97/224/45
f 100/227/46 101/230/20 50/129/47
f 103/233/39 102/232/28 98/225/45
f 103/234/39 106/239/31 105/237/20
f 103/233/39 104/235/40 102/232/28
f 49/127/45 107/241/1 100/228/46
f 66/164/24 62/158/28 65/162/25
f 54/138/3 61/155/3 56/142/22
f 58/146/24 56/143/22 60/152/25
f 90/208/48 92/213/36 85/200/37
f 94/218/39 109/243/31 95/220/20
f 94/219/39 96/223/40 99/226/44
f 103/234/39 105/237/20 104/236/40
f 100/227/46 110/245/31 101/230/20
f 49/127/45 111/249/24 112/251/1
f 111/249/24 113/253/1 112/251/1
f 114/256/1 110/246/31 107/241/1
f 110/246/31 100/228/46 107/241/1
f 49/127/45 112/251/1 107/241/1
f 49/128/45 100/229/46 50/130/47
f 69/169/1 71/172/21 72/173/32
f 72/174/32 77/186/28 76/184/25
f 68/168/29 83/197/21 84/198/30
f 115/260/49 116/261/50 117/263/51
f 119/266/52 120/267/53 121/269/54
f 122/271/55 123/272/56 124/274/57
f 125/277/58 124/276/57 123/273/56
f 126/278/59 127/280/60 128/283/61
f 128/283/61 127/280/60 124/275/57
f 118/264/62 120/267/53 119/266/52
f 118/264/62 124/275/57 120/267/53
f 130/286/63 131/287/56 129/284/57
f 133/290/58 129/285/57 131/288/56
f 130/286/63 129/284/57 134/291/64
f 136/294/65 137/296/66 138/298/67
f 139/299/56 136/294/65 140/302/68
f 139/299/56 140/302/68 141/304/69
f 136/294/65 138/298/67 142/307/70
f 141/304/69 140/302/68 143/308/71
f 139/300/56 141/305/69 145/312/72
f 135/292/56 147/315/72 148/316/57
f 135/292/56 149/318/58 147/315/72
f 135/293/56 148/317/57 153/323/73
f 156/327/74 151/321/75 150/319/76
f 160/333/77 161/334/78 158/329/79
f 158/329/79 161/334/78 154/325/80
f 156/328/74 159/330/81 162/336/54
f 163/338/63 164/340/73 165/342/82
f 122/271/55 124/274/57 118/265/62
f 154/324/80 150/320/83 155/326/84
f 163/339/63 166/343/85 168/345/57
f 169/346/63 117/262/51 170/349/82
f 172/351/63 167/344/56 171/350/57
f 172/352/63 174/355/82 175/356/86
f 172/351/63 171/350/57 173/353/73
f 115/259/49 169/347/63 176/357/87
f 133/290/58 132/289/72 129/285/57
f 120/267/53 124/275/57 127/280/60
f 125/277/58 128/282/61 124/276/57
f 159/330/81 154/325/80 161/334/78
f 163/338/63 165/342/82 178/359/86
f 163/339/63 168/345/57 164/341/73
f 172/352/63 173/354/73 174/355/82
f 169/346/63 170/349/82 179/361/75
f 115/259/49 180/363/68 181/365/88
f 181/365/88 180/363/68 182/367/71
f 183/370/89 176/357/87 179/360/75
f 179/360/75 176/357/87 169/347/63
f 115/259/49 176/357/87 180/363/68
f 115/260/49 117/263/51 169/348/63
f 136/294/65 139/299/56 137/296/66
f 144/311/90 137/297/66 139/301/56
f 139/300/56 145/312/72 146/313/57
f 144/311/90 139/301/56 146/314/57
f 135/293/56 153/323/73 152/322/63
f 80/192/10 79/190/10 147/315/10 149/318/10
f 61/156/91 54/139/92 120/268/92 127/281/91
f 87/204/10 81/194/10 151/321/10 156/327/10
f 69/170/92 73/176/91 140/303/91 136/295/92
f 74/179/10 76/185/10 145/312/10 141/305/10
f 58/147/10 60/153/10 128/282/10 125/277/10
f 92/214/93 90/209/94 159/331/95 161/335/96
f 73/176/91 75/182/91 143/309/97 140/303/91
f 66/165/10 65/163/10 132/289/10 133/290/10
f 95/221/10 109/244/10 178/359/10 165/342/10
f 53/136/92 52/134/10 119/266/10 121/269/98
f 91/211/99 92/214/93 161/335/96 160/332/100
f 60/154/10 59/149/91 126/278/97 128/283/10
f 105/238/10 106/240/10 175/356/10 174/355/10
f 107/242/92 112/252/91 180/364/91 176/358/92
f 114/257/92 107/242/92 176/358/92 183/371/98
f 89/207/101 91/212/99 160/333/100 158/329/101
f 93/216/92 87/205/10 156/328/10 162/336/98
f 75/183/91 74/180/10 141/306/10 143/310/97
f 90/209/94 93/217/92 162/337/98 159/331/95
f 54/139/92 53/137/92 121/270/98 120/268/92
f 112/252/91 113/254/91 182/368/97 180/364/91
f 113/255/91 111/250/10 181/366/10 182/369/97
f 59/150/91 61/156/91 127/281/91 126/279/97
f 101/231/10 110/247/10 179/361/10 170/349/10
f 110/248/10 114/258/92 183/372/98 179/362/10
l 70 138
l 88 157
l 108 177
